<svg width="80" height="100" viewBox="0 0 80 100" fill="none" xmlns="http://www.w3.org/2000/svg">
<path d="M22.0311 50.1709H52.8539V66.8946H55.9362V40.1366C55.9341 38.3627 55.2839 36.6627 54.1287 35.4085C52.9729 34.1549 51.4063 33.4494 49.7716 33.4471H48.2305V30.1024H49.7716C50.1803 30.1024 50.5725 29.9262 50.8614 29.6126C51.1504 29.299 51.3128 28.8735 51.3128 28.43V18.3958C51.3128 17.9523 51.1504 17.5267 50.8614 17.2132C50.5725 16.8996 50.1803 16.7234 49.7716 16.7234H43.6071V6.68915C43.6071 4.29928 42.4319 2.0908 40.5248 0.89567C38.6177 -0.298882 36.2674 -0.298882 34.3602 0.89567C32.4531 2.09097 31.278 4.29947 31.278 6.68915V16.7234H25.1134C24.2623 16.7234 23.5723 17.4722 23.5723 18.3958V28.43C23.5723 28.8735 23.7346 29.299 24.0236 29.6126C24.3126 29.9262 24.7047 30.1024 25.1134 30.1024H26.6545V33.4471H25.1134C23.4787 33.4494 21.9121 34.1549 20.7563 35.4085C19.6011 36.6628 18.951 38.3628 18.9489 40.1366V81.9459H22.0311V50.1709ZM34.3602 6.68915C34.3602 5.49385 34.9478 4.38969 35.9014 3.79241C36.855 3.19514 38.0301 3.19514 38.9837 3.79241C39.9372 4.38969 40.5248 5.49389 40.5248 6.68915V16.7234H34.3602V6.68915ZM26.6545 20.0681H48.2305V26.7576H26.6545V20.0681ZM29.7368 30.1024H45.1482V33.4471H29.7368V30.1024ZM25.1134 36.7919H49.7716C50.589 36.7926 51.3719 37.1458 51.9498 37.7729C52.5277 38.4 52.8532 39.2497 52.8539 40.1366V46.8261H22.0311V40.1366C22.0318 39.2496 22.3572 38.4 22.9351 37.7729C23.5131 37.1458 24.2961 36.7926 25.1134 36.7919Z" fill="#424B25"/>
<path d="M79.8987 80.1262C79.6077 78.3807 78.6906 76.8323 77.3483 75.8199C76.0067 74.8082 74.3494 74.4148 72.7401 74.7269L63.6398 76.5038L62.5486 69.9203H62.5479C62.4757 69.4836 62.2466 69.0961 61.9108 68.843C61.5751 68.5899 61.1609 68.4914 60.7584 68.5697L51.6574 70.3467C51.2556 70.425 50.8978 70.6744 50.6646 71.0387C50.4314 71.4023 50.3413 71.8525 50.4135 72.2893L50.6859 73.9348L46.1354 74.8232H46.1361C45.2981 74.9867 44.7415 75.8565 44.8922 76.7651L45.4467 80.1099L4.68848 89.599C3.15422 89.9559 1.88343 91.1153 1.29515 92.6943C0.7076 94.2734 0.880278 96.0652 1.75543 97.4784C2.63059 98.8916 4.09462 99.7414 5.66394 99.7473C5.89717 99.7473 6.1304 99.7287 6.36157 99.6921L47.613 93.1698L48.1675 96.5161H48.1668C48.2398 96.9521 48.4689 97.3396 48.8046 97.5927C49.1404 97.8458 49.5546 97.9443 49.957 97.866L54.5075 96.9775L54.78 98.623C54.8522 99.0598 55.0813 99.4472 55.4171 99.7003C55.7529 99.9534 56.1677 100.052 56.5702 99.9729L65.6705 98.1959C66.5085 98.0324 67.0651 97.1634 66.9144 96.2541L65.8232 89.6707L74.9242 87.8938C76.5328 87.5795 77.9611 86.5842 78.894 85.1276C79.827 83.671 80.1889 81.8717 79.8992 80.1254L79.8987 80.1262ZM5.91702 96.3826C5.03843 96.5215 4.21627 95.8802 4.05937 94.932C3.90182 93.9838 4.46599 93.0715 5.33425 92.8699L45.9939 83.4047L47.0672 89.8768L5.91702 96.3826ZM50.9288 94.2779L48.2002 77.8185L51.2337 77.2264L53.9623 93.6858L50.9288 94.2779ZM57.542 96.3855L53.7215 73.343L59.7898 72.159L63.6097 95.2014L57.542 96.3855ZM76.3632 83.2192C75.8988 83.9494 75.184 84.4474 74.379 84.6019L65.278 86.3788L64.1868 79.7954L73.2871 78.0185H73.2878C74.092 77.8617 74.9211 78.0581 75.5919 78.5643C76.2627 79.0705 76.7216 79.8454 76.8661 80.7189C77.0106 81.5916 76.8296 82.4913 76.3632 83.2192L76.3632 83.2192Z" fill="#424B25"/>
<path d="M37.4426 55.1878C36.9857 55.1878 36.5523 55.408 36.2599 55.788C35.1701 57.2043 29.7369 64.4731 29.7369 68.5667C29.7369 71.5538 31.2058 74.3147 33.5898 75.808C35.9737 77.3019 38.9116 77.3019 41.2955 75.808C43.6794 74.3148 45.1483 71.5538 45.1483 68.5667C45.1483 64.4731 39.7158 57.2043 38.6253 55.788C38.3329 55.408 37.8995 55.1878 37.4427 55.1878H37.4426ZM42.066 68.5668C42.066 70.3593 41.1847 72.0153 39.7543 72.9119C38.3239 73.8078 36.5612 73.8078 35.1309 72.9119C33.7005 72.0152 32.8192 70.3594 32.8192 68.5668C32.8192 66.772 35.2381 62.6642 37.4426 59.5411C39.647 62.6642 42.066 66.7719 42.066 68.5668Z" fill="#424B25"/>
<path d="M46.6896 53.5154H49.7719V56.8602H46.6896V53.5154Z" fill="#424B25"/>
</svg>
