<svg width="88" height="100" viewBox="0 0 88 100" fill="none" xmlns="http://www.w3.org/2000/svg">
<path d="M85.7268 56.8629H82.1129V52.9413H85.7268V49.0197H82.1129V43.1374C82.1129 42.6174 81.9226 42.1185 81.5838 41.7508C81.245 41.3832 80.7852 41.1766 80.306 41.1766H76.6922V35.2943C76.6898 32.6787 75.9993 30.1182 74.7022 27.9141C73.4051 25.71 71.5555 23.9522 69.3702 22.8492L69.5453 22.3415H69.5461C71.9023 15.5225 71.8273 7.99468 69.3355 1.23257C69.1266 0.666225 68.687 0.237297 68.1457 0.0727259C67.6045 -0.0918407 67.0229 0.0263319 66.5735 0.392232L62.2369 3.92164C59.1297 6.45048 55.6676 8.41911 51.9828 9.75244C48.2979 11.0865 44.4389 11.7657 40.554 11.7649C35.8302 11.764 31.2605 13.59 27.6652 16.9144C24.0691 20.239 21.683 24.8452 20.9336 29.9065C18.5644 30.6199 16.4374 32.0642 14.8111 34.0653C13.1857 36.0664 12.1307 38.5366 11.7749 41.1766H8.02954C7.03171 41.1766 6.22262 42.0546 6.22262 43.1374V49.0197H2.60879V52.9413H6.22262V56.8628H2.60879C1.61096 56.8628 0.80188 57.7408 0.80188 58.8236V92.1569C0.8043 94.2367 1.56659 96.2299 2.92103 97.7004C4.27621 99.1701 6.11297 99.9973 8.02954 100H80.3061C82.2227 99.9974 84.0595 99.1702 85.4146 97.7004C86.769 96.2298 87.5313 94.2367 87.5337 92.1569V58.8236C87.5337 58.3037 87.3434 57.8047 87.0046 57.4371C86.6658 57.0694 86.206 56.8628 85.7268 56.8628L85.7268 56.8629ZM24.2917 33.3335H47.7816V29.4119H24.6985C25.5181 25.5132 27.5324 22.0318 30.4129 19.5388C33.2934 17.0449 36.8695 15.6865 40.5541 15.6865C44.8269 15.6873 49.0724 14.9398 53.1259 13.4727C57.1794 12.0065 60.9875 9.84089 64.4054 7.05904L66.7544 5.14729C68.12 10.3529 67.9127 15.8966 66.1615 20.9649L65.9009 21.7185H65.9017C65.2862 21.6196 64.6659 21.5688 64.044 21.5688H55.0094V25.4904H64.044C66.439 25.493 68.7356 26.5268 70.4295 28.365C72.1235 30.2032 73.0761 32.6953 73.0786 35.2943V41.1767H15.439C15.8585 38.9638 16.9677 36.9759 18.5802 35.5464C20.1935 34.1178 22.2101 33.3362 24.2921 33.3335L24.2917 33.3335ZM9.83637 52.9413H26.0986V49.0197H9.83637V45.0982H78.4991V49.0197H73.0784V52.9413H78.4991V56.8629H9.83637V52.9413ZM83.9198 92.1569C83.919 93.1968 83.5375 94.193 82.8599 94.9282C82.1823 95.6635 81.2643 96.0776 80.306 96.0784H8.0295C7.0712 96.0775 6.15322 95.6635 5.47566 94.9282C4.7981 94.1929 4.41652 93.1968 4.41571 92.1569V60.7844H83.9199L83.9198 92.1569Z" fill="#424B25"/>
<path d="M29.7124 49.0197H69.4645V52.9413H29.7124V49.0197Z" fill="#424B25"/>
<path d="M44.1677 88.2354C46.5636 88.2354 48.8616 87.2024 50.5566 85.3643C52.2506 83.5252 53.2023 81.0313 53.2023 78.4315C53.2023 75.8316 52.2505 73.3379 50.5566 71.4986C48.8618 69.6604 46.5636 68.6276 44.1677 68.6276C41.7719 68.6276 39.4739 69.6605 37.7789 71.4986C36.0849 73.3377 35.1332 75.8316 35.1332 78.4315C35.1356 81.0305 36.0883 83.5225 37.7822 85.3608C39.4762 87.199 41.7727 88.2327 44.1677 88.2354ZM44.1677 72.5491C45.6052 72.5491 46.9847 73.1689 48.0009 74.2718C49.0171 75.3748 49.5884 76.8717 49.5884 78.4314C49.5884 79.991 49.0173 81.4882 48.0009 82.5909C46.9845 83.6936 45.605 84.3136 44.1677 84.3136C42.7305 84.3136 41.3508 83.6938 40.3346 82.5909C39.3184 81.488 38.7471 79.991 38.7471 78.4314C38.7487 76.8715 39.3206 75.3763 40.337 74.2743C41.3526 73.1713 42.7304 72.5507 44.1679 72.549L44.1677 72.5491Z" fill="#424B25"/>
</svg>
