<svg width="68" height="100" viewBox="0 0 68 100" fill="none" xmlns="http://www.w3.org/2000/svg">
<path d="M55.7533 42.8571H11.871C10.7073 42.8571 9.59062 42.3555 8.76797 41.4626C7.94533 40.5697 7.48285 39.3579 7.48285 38.0953V28.5715C7.48285 27.695 8.13782 26.9842 8.94559 26.9842H58.6788C59.0667 26.9842 59.4389 27.1515 59.7132 27.4491C59.9875 27.7467 60.1416 28.1506 60.1416 28.5715V38.0953C60.1416 39.3581 59.6793 40.5699 58.8565 41.4626C58.0337 42.3553 56.9169 42.8571 55.7534 42.8571H55.7533ZM10.4082 30.1587V38.0952C10.4082 38.5162 10.5624 38.9201 10.8366 39.2177C11.1109 39.5153 11.4831 39.6825 11.871 39.6825H55.7533C56.1412 39.6825 56.5134 39.5153 56.7876 39.2177C57.0619 38.9201 57.216 38.5162 57.216 38.0952V30.1587H10.4082Z" fill="#424B25"/>
<path d="M55.7533 100H11.871C11.3493 99.9986 10.868 99.6967 10.6074 99.2063C10.1817 98.4127 0.169142 79.6435 0.169142 66.6658C0.159347 62.8697 1.10882 59.143 2.91375 55.8911C4.71936 52.6393 7.31117 49.9862 10.4083 48.2211V41.2689H13.3338V49.2054C13.3338 49.8404 12.9851 50.4143 12.4477 50.6645C9.6541 52.0994 7.29282 54.3643 5.63749 57.1965C3.98212 60.0288 3.10051 63.3119 3.09466 66.6658C3.09466 77.3723 10.8387 93.1419 12.724 96.8245H54.9012C56.7863 93.1418 64.5305 77.3614 64.5305 66.6658C64.524 63.3105 63.6411 60.0259 61.9845 57.1936C60.3272 54.3614 57.9639 52.0965 55.169 50.6623C54.6355 50.41 54.2907 49.8375 54.2913 49.2054V41.2689H57.2168V48.2211C60.314 49.9863 62.9058 52.6392 64.7114 55.8911C66.5163 59.143 67.4659 62.8696 67.456 66.6657C67.456 79.6433 57.4433 98.4117 57.0177 99.2063C56.7572 99.6967 56.2759 99.9985 55.7541 100L55.7533 100Z" fill="#424B25"/>
<path d="M51.3651 92.0635H16.2593C15.6441 92.0635 15.095 91.6461 14.884 91.019C14.6502 90.2955 8.94562 73.2015 8.94562 65.0798C8.96129 62.4536 9.81477 59.9139 11.3617 57.8937C12.9087 55.8736 15.0532 54.498 17.4295 54.0006C17.5255 53.9786 17.6235 53.968 17.7221 53.9687H49.9024C50.001 53.968 50.099 53.9786 50.195 54.0006C52.5713 54.498 54.7157 55.8734 56.2627 57.8937C57.8097 59.914 58.6631 62.4537 58.6789 65.0798C58.6789 73.2018 52.9742 90.2952 52.7405 91.019C52.5295 91.6461 51.9804 92.0635 51.3652 92.0635H51.3651ZM17.2941 88.8889H50.3303C51.5697 85.0396 55.753 71.559 55.753 65.0794C55.7393 63.21 55.1352 61.4023 54.0408 59.9575C52.947 58.5134 51.4301 57.5198 49.7427 57.1429H17.885C16.2023 57.5305 14.6905 58.5268 13.5974 59.9688C12.5049 61.4108 11.8956 63.2129 11.8702 65.0794C11.8702 71.559 16.0533 85.0395 17.2929 88.8889H17.2941Z" fill="#424B25"/>
<path d="M42.5886 92.0635H25.0357C24.2279 92.0635 23.5729 91.3527 23.5729 90.4762V80.9524C23.5729 80.0758 24.2279 79.3651 25.0357 79.3651H42.5886C42.9765 79.3651 43.3487 79.5323 43.623 79.8299C43.8972 80.1276 44.0513 80.5315 44.0513 80.9524V90.4762C44.0513 90.8971 43.8972 91.301 43.623 91.5986C43.3487 91.8963 42.9765 92.0635 42.5886 92.0635ZM26.4984 88.8889H41.1258V82.5397H26.4984V88.8889Z" fill="#424B25"/>
<path d="M33.8122 76.1905C32.2606 76.1905 30.7723 75.5215 29.6747 74.3311C28.5776 73.1399 27.9612 71.5249 27.9612 69.8413C27.9612 66.7603 31.9281 61.8063 32.7235 60.8446C33.0082 60.5229 33.4014 60.3408 33.8121 60.3408C34.2228 60.3408 34.616 60.5229 34.9007 60.8446C35.696 61.8062 39.663 66.7601 39.663 69.8413C39.663 71.5249 39.0466 73.14 37.9495 74.3311C36.8518 75.5215 35.3636 76.1905 33.812 76.1905H33.8122ZM33.8122 64.3637C32.2599 66.4684 30.8867 68.8301 30.8867 69.8413C30.8867 70.9758 31.4443 72.0238 32.3494 72.5907C33.2545 73.1576 34.3698 73.1576 35.2749 72.5907C36.18 72.0238 36.7376 70.9757 36.7376 69.8413C36.7376 68.857 35.3657 66.4775 33.8122 64.3637Z" fill="#424B25"/>
<path d="M32.3494 74.6032H35.2749V80.9524H32.3494V74.6032Z" fill="#424B25"/>
<path d="M26.4984 19.0476H23.5729C23.5729 18.1555 23.2556 17.7778 22.5386 16.9956C21.3423 15.9468 20.6475 14.3673 20.6475 12.6984C20.6475 11.0295 21.3423 9.45016 22.5386 8.40127C23.2556 7.61896 23.5729 7.24127 23.5729 6.34921C23.5729 5.45714 23.2556 5.07936 22.5386 4.29714C21.3566 3.23634 20.6644 1.66458 20.6475 0H23.573C23.573 0.892154 23.8904 1.26984 24.6074 2.05206C25.7893 3.11287 26.4815 4.68463 26.4984 6.34921C26.4814 8.01375 25.7892 9.58549 24.6074 10.6463C23.8904 11.4287 23.573 11.8063 23.573 12.6984C23.573 13.5905 23.8904 13.9683 24.6074 14.7505C25.7893 15.8113 26.4815 17.383 26.4984 19.0476Z" fill="#424B25"/>
<path d="M36.7376 19.0476H33.8121C33.8121 18.1555 33.4948 17.7778 32.7778 16.9956C31.5814 15.9468 30.8867 14.3673 30.8867 12.6984C30.8867 11.0295 31.5815 9.45016 32.7778 8.40127C33.4948 7.61896 33.8121 7.24127 33.8121 6.34921C33.8121 5.45714 33.4948 5.07936 32.7778 4.29714C31.5958 3.23634 30.9036 1.66458 30.8867 0H33.8122C33.8122 0.892154 34.1296 1.26984 34.8466 2.05206C36.0285 3.11287 36.7207 4.68463 36.7376 6.34921C36.7206 8.01375 36.0284 9.58549 34.8466 10.6463C34.1296 11.4287 33.8122 11.8063 33.8122 12.6984C33.8122 13.5905 34.1296 13.9683 34.8466 14.7505C36.0285 15.8113 36.7207 17.383 36.7376 19.0476Z" fill="#424B25"/>
<path d="M46.9768 19.0476H44.0513C44.0513 18.1555 43.734 17.7778 43.017 16.9956C41.8206 15.9468 41.1259 14.3673 41.1259 12.6984C41.1259 11.0295 41.8207 9.45016 43.017 8.40127C43.734 7.61896 44.0513 7.24127 44.0513 6.34921C44.0513 5.45714 43.734 5.07936 43.017 4.29714C41.835 3.23634 41.1428 1.66458 41.1259 0H44.0514C44.0514 0.892154 44.3688 1.26984 45.0858 2.05206C46.2677 3.11287 46.9599 4.68463 46.9768 6.34921C46.9598 8.01375 46.2676 9.58549 45.0858 10.6463C44.3688 11.4287 44.0514 11.8063 44.0514 12.6984C44.0514 13.5905 44.3688 13.9683 45.0858 14.7505C46.2677 15.8113 46.9599 17.383 46.9768 19.0476Z" fill="#424B25"/>
<path d="M8.9455 33.3333H54.2905V36.5079H8.9455V33.3333Z" fill="#424B25"/>
</svg>
