<svg width="89" height="100" viewBox="0 0 89 100" fill="none" xmlns="http://www.w3.org/2000/svg">
<path d="M73.3061 58.6781H67.5944C66.8586 58.6781 66.2616 58.0303 66.2616 57.2319V50.0006C66.2616 47.4939 68.1404 45.4553 70.4502 45.4553C72.76 45.4553 74.6388 47.4941 74.6388 50.0006V57.2319C74.6388 58.0303 74.0418 58.6781 73.3061 58.6781H73.3061ZM68.9271 55.7857H71.9734V50.0007C71.9734 49.0894 71.29 48.3478 70.4502 48.3478C69.6105 48.3478 68.9271 49.0894 68.9271 50.0007V55.7857Z" fill="#424B25"/>
<path d="M39.9881 99.9998H39.9874L39.7848 99.9991C32.4404 99.943 25.5085 96.7944 20.2674 91.134C15.0248 85.4737 12.0898 77.9672 12.0023 69.9981C11.886 59.4109 16.7337 49.6915 24.9702 43.998C29.9627 40.5463 32.9438 34.6808 32.9438 28.3069C32.9438 27.5085 33.5408 26.8607 34.2765 26.8607H45.7003C46.436 26.8607 47.033 27.5086 47.033 28.3069C47.033 34.694 49.9984 40.5493 54.9657 43.9693C59.4128 47.0316 62.9629 51.3681 65.2368 56.5141C65.3484 56.7252 65.4123 56.9709 65.4123 57.2321C65.4123 57.9988 64.8629 58.626 64.1679 58.6754L64.1686 61.9841H66.027C66.6533 61.9841 67.1959 62.4579 67.3292 63.122C67.3782 63.3662 67.4264 63.6104 67.4693 63.8562C67.54 64.2568 67.4523 64.6708 67.2265 64.9969L62.2647 72.1766V87.5224C62.2647 87.8471 62.164 88.1629 61.9784 88.4182C56.631 95.7779 48.6153 100 39.9891 100L39.9881 99.9998ZM35.5642 29.752C35.146 36.5531 31.7876 42.7137 26.4013 46.4363C18.9488 51.5882 14.5614 60.3831 14.6669 69.9637C14.8301 84.8248 26.1063 97.0009 39.8034 97.1067L39.987 97.1074C47.6403 97.1074 54.761 93.435 59.5984 87.0137V71.6944C59.5984 71.3815 59.6916 71.0768 59.865 70.8266L63.9775 64.8763H62.8351C62.0994 64.8763 61.5024 64.2284 61.5024 63.4301V57.2319C61.5024 56.7641 61.7064 56.3486 62.0239 56.0845C59.9745 52.1618 57.0681 48.8436 53.5363 46.4115C48.1713 42.7176 44.8264 36.5667 44.4102 29.7529L35.5642 29.752Z" fill="#424B25"/>
<path d="M74.8293 99.9998H66.0712C62.5019 99.9998 59.5977 96.8482 59.5977 92.975V71.6937C59.5977 70.8953 60.1947 70.2474 60.9304 70.2474H79.9708C80.7066 70.2474 81.3036 70.8953 81.3036 71.6937V92.975C81.3036 96.8482 78.3993 99.9998 74.8301 99.9998H74.8293ZM62.2631 73.1402V92.9747C62.2631 95.2532 63.9712 97.1068 66.071 97.1068H74.8291C76.9288 97.1068 78.637 95.2533 78.637 92.9747V73.1402H62.2631Z" fill="#424B25"/>
<path d="M79.9698 73.1403H60.9293C60.4248 73.1403 59.9631 72.8311 59.7373 72.3411C59.5116 71.8512 59.5605 71.2645 59.8631 70.8262L65.5749 62.5619C65.8265 62.1981 66.2216 61.9834 66.6411 61.9834H74.2569C74.6765 61.9834 75.0716 62.1974 75.3231 62.5619L81.0349 70.8262C81.3375 71.2645 81.3865 71.8512 81.1607 72.3411C80.935 72.8311 80.4733 73.1403 79.9687 73.1403H79.9698ZM63.5958 70.2478H77.3043L73.5916 64.8759H67.3085L63.5958 70.2478Z" fill="#424B25"/>
<path d="M78.0671 64.8759H62.8354C62.0997 64.8759 61.5027 64.228 61.5027 63.4297V57.2315C61.5027 56.4331 62.0997 55.7852 62.8354 55.7852H78.0671C78.8028 55.7852 79.3998 56.4331 79.3998 57.2315V63.4297C79.3998 64.2281 78.8028 64.8759 78.0671 64.8759ZM64.1682 61.9835H76.7344V58.6777H64.1682V61.9835Z" fill="#424B25"/>
<path d="M87.5856 99.9998H1.90722C1.17147 99.9998 0.574463 99.352 0.574463 98.5536C0.574463 97.7552 1.17149 97.1073 1.90722 97.1073H87.5856C88.3214 97.1073 88.9184 97.7552 88.9184 98.5536C88.9184 99.352 88.3214 99.9998 87.5856 99.9998Z" fill="#424B25"/>
<path d="M43.7951 29.752H36.1792C35.4435 29.752 34.8465 29.1041 34.8465 28.3057V21.8964C33.6109 22.9619 32.0735 23.5537 30.4674 23.5537C28.5629 23.5537 26.7861 22.742 25.4695 21.2973C24.9228 21.4242 24.3652 21.4877 23.8036 21.4877C19.3939 21.4877 15.8069 17.5954 15.8069 12.81C15.8069 8.02463 19.3937 4.13236 23.8036 4.13236C25.6756 4.13236 27.4802 4.85548 28.9007 6.12827C30.5578 3.61062 33.2491 2.06618 36.1792 2.06618C38.2266 2.06618 40.1672 2.81144 41.7313 4.15956C43.1606 1.63303 45.7378 0 48.5549 0C52.1527 0 55.1963 2.55524 56.2 6.11939C57.4763 4.8672 59.1586 4.13217 60.9307 4.13217C64.8146 4.13217 67.9753 7.56107 67.9753 11.7767C67.9753 15.9924 64.8148 19.4213 60.9307 19.4213C59.6713 19.4213 58.4657 19.0664 57.407 18.4001C55.877 21.511 52.8483 23.5534 49.5069 23.5534C47.9573 23.5534 46.4517 23.1166 45.1279 22.3101V28.3054C45.1279 29.1038 44.5308 29.7516 43.7951 29.7516L43.7951 29.752ZM37.512 26.8596H42.4623V19.308C42.4623 18.7066 42.8057 18.1679 43.3239 17.9554C43.8427 17.7429 44.4282 17.9008 44.7947 18.3517C45.9881 19.8193 47.7057 20.6613 49.5069 20.6613C52.305 20.6613 54.791 18.6218 55.552 15.7012C55.6819 15.2039 56.0464 14.8194 56.5081 14.6925C56.9705 14.5656 57.4594 14.7161 57.7912 15.0873C58.6228 16.017 59.7381 16.5291 60.9307 16.5291C63.3453 16.5291 65.3097 14.3974 65.3097 11.7772C65.3097 9.15694 63.3453 7.02522 60.9307 7.02522C59.245 7.02522 57.6899 8.09516 56.9684 9.75179C56.7651 10.2189 56.3476 10.5325 55.8736 10.5753C55.4003 10.6173 54.94 10.3834 54.6687 9.95914C54.5293 9.74147 54.3763 9.5297 54.2124 9.32973C54.0097 9.08106 53.8921 8.76377 53.8792 8.43246C53.7602 5.32601 51.4211 2.89318 48.5549 2.89318C46.1981 2.89318 44.0928 4.60729 43.436 7.06219C43.2973 7.5824 42.9016 7.97421 42.412 8.07825C41.9217 8.1823 41.4199 7.98012 41.1105 7.55584C39.909 5.90591 38.1117 4.95923 36.1793 4.95923C33.6606 4.95923 31.3929 6.58554 30.4015 9.10179C30.2138 9.57919 29.8038 9.9105 29.3285 9.97029C28.8532 10.0308 28.3847 9.80795 28.1018 9.38958C27.0995 7.90938 25.4927 7.02531 23.8037 7.02531C20.8641 7.02531 18.4726 9.62041 18.4726 12.8104C18.4726 16.0003 20.8641 18.5954 23.8037 18.5954C24.381 18.5954 24.9522 18.4943 25.5009 18.2943C26.0415 18.0973 26.6385 18.2958 26.9846 18.788C27.8217 19.9789 29.0913 20.6615 30.4676 20.6615C31.7575 20.6615 32.9767 20.0468 33.8117 18.9754C34.1191 18.5814 34.5964 18.3947 35.0643 18.4862C35.4382 18.5592 35.8129 18.5954 36.1794 18.5954C36.9152 18.5954 37.5122 19.2433 37.5122 20.0416L37.512 26.8596Z" fill="#424B25"/>
<path d="M39.9881 91.7355C28.7548 91.7355 19.616 81.8183 19.616 69.6286C19.616 68.8302 20.213 68.1824 20.9487 68.1824C21.6845 68.1824 22.2815 68.8302 22.2815 69.6286C22.2815 80.2232 30.2251 88.8434 39.9885 88.8434C40.7242 88.8434 41.3212 89.4913 41.3212 90.2897C41.3212 91.0881 40.7242 91.7359 39.9885 91.7359L39.9881 91.7355Z" fill="#424B25"/>
<path d="M39.988 66.9425C37.1532 66.9425 34.8474 64.4403 34.8474 61.3641C34.8474 58.2879 37.1532 55.7857 39.988 55.7857C42.8229 55.7857 45.1287 58.2879 45.1287 61.3641C45.1287 64.4403 42.8229 66.9425 39.988 66.9425ZM39.988 58.6781C38.6233 58.6781 37.5129 59.8831 37.5129 61.3641C37.5129 62.8451 38.6233 64.05 39.988 64.05C41.3528 64.05 42.4632 62.8451 42.4632 61.3641C42.4632 59.8831 41.3528 58.6781 39.988 58.6781Z" fill="#424B25"/>
<path d="M48.556 87.6024C45.1962 87.6024 42.4634 84.6368 42.4634 80.9909C42.4634 77.345 45.1962 74.3794 48.556 74.3794C51.9159 74.3794 54.6487 77.345 54.6487 80.9909C54.6487 84.6368 51.9159 87.6024 48.556 87.6024ZM48.556 77.2719C46.6664 77.2719 45.1288 78.9402 45.1288 80.9909C45.1288 83.0416 46.6663 84.7099 48.556 84.7099C50.4458 84.7099 51.9832 83.0416 51.9832 80.9909C51.9832 78.9402 50.4458 77.2719 48.556 77.2719Z" fill="#424B25"/>
<path d="M79.9698 89.6689H66.6422C65.9065 89.6689 65.3094 89.0211 65.3094 88.2227C65.3094 87.4243 65.9065 86.7764 66.6422 86.7764H79.9698C80.7056 86.7764 81.3026 87.4243 81.3026 88.2227C81.3026 89.0211 80.7055 89.6689 79.9698 89.6689Z" fill="#424B25"/>
</svg>
